<mxfile host="app.diagrams.net" modified="2023-03-27T01:54:15.443Z" agent="5.0 (Macintosh; Intel Mac OS X 10_15_7) AppleWebKit/537.36 (KHTML, like Gecko) Chrome/111.0.0.0 Safari/537.36" etag="YoMPPXWKQsbEYNz4gmbI" version="21.0.10" type="github">
  <diagram name="第 1 页" id="7eFljQhIo_SpwpvvRd7w">
    <mxGraphModel dx="954" dy="562" grid="1" gridSize="10" guides="1" tooltips="1" connect="1" arrows="1" fold="1" page="1" pageScale="1" pageWidth="827" pageHeight="1169" math="0" shadow="0">
      <root>
        <mxCell id="0" />
        <mxCell id="1" parent="0" />
        <mxCell id="9rMmdFguDnzDO0_cB9-q-1" value="机构永久授权码" style="swimlane;childLayout=stackLayout;resizeParent=1;resizeParentMax=0;startSize=20;html=1;" vertex="1" parent="1">
          <mxGeometry x="220.00000000000045" y="40" width="430" height="380" as="geometry" />
        </mxCell>
        <mxCell id="9rMmdFguDnzDO0_cB9-q-2" value="教育平台" style="swimlane;startSize=20;html=1;" vertex="1" parent="9rMmdFguDnzDO0_cB9-q-1">
          <mxGeometry y="20" width="230" height="360" as="geometry" />
        </mxCell>
        <mxCell id="9rMmdFguDnzDO0_cB9-q-7" value="数据库添加记录" style="rounded=1;whiteSpace=wrap;html=1;" vertex="1" parent="9rMmdFguDnzDO0_cB9-q-2">
          <mxGeometry x="62.5" y="40" width="107.5" height="40" as="geometry" />
        </mxCell>
        <mxCell id="9rMmdFguDnzDO0_cB9-q-8" value="应用票据缓存" style="rounded=1;whiteSpace=wrap;html=1;" vertex="1" parent="9rMmdFguDnzDO0_cB9-q-2">
          <mxGeometry x="62.5" y="100" width="107.5" height="40" as="geometry" />
        </mxCell>
        <mxCell id="9rMmdFguDnzDO0_cB9-q-18" style="edgeStyle=orthogonalEdgeStyle;rounded=0;orthogonalLoop=1;jettySize=auto;html=1;" edge="1" parent="9rMmdFguDnzDO0_cB9-q-2" source="9rMmdFguDnzDO0_cB9-q-14" target="9rMmdFguDnzDO0_cB9-q-17">
          <mxGeometry relative="1" as="geometry" />
        </mxCell>
        <mxCell id="9rMmdFguDnzDO0_cB9-q-14" value="根据ticket和authcode&lt;br&gt;获取永久授权码" style="rounded=1;whiteSpace=wrap;html=1;" vertex="1" parent="9rMmdFguDnzDO0_cB9-q-2">
          <mxGeometry x="62.5" y="180" width="120" height="40" as="geometry" />
        </mxCell>
        <mxCell id="9rMmdFguDnzDO0_cB9-q-17" value="是否成功" style="rhombus;whiteSpace=wrap;html=1;" vertex="1" parent="9rMmdFguDnzDO0_cB9-q-2">
          <mxGeometry x="84" y="240" width="77" height="50" as="geometry" />
        </mxCell>
        <mxCell id="9rMmdFguDnzDO0_cB9-q-25" value="" style="endArrow=none;html=1;rounded=0;dashed=1;" edge="1" parent="9rMmdFguDnzDO0_cB9-q-2">
          <mxGeometry width="50" height="50" relative="1" as="geometry">
            <mxPoint x="9.999999999999545" y="160" as="sourcePoint" />
            <mxPoint x="429.99999999999955" y="160" as="targetPoint" />
          </mxGeometry>
        </mxCell>
        <mxCell id="9rMmdFguDnzDO0_cB9-q-9" style="edgeStyle=orthogonalEdgeStyle;rounded=0;orthogonalLoop=1;jettySize=auto;html=1;entryX=1;entryY=0.5;entryDx=0;entryDy=0;exitX=0.5;exitY=1;exitDx=0;exitDy=0;" edge="1" parent="9rMmdFguDnzDO0_cB9-q-1" source="9rMmdFguDnzDO0_cB9-q-6" target="9rMmdFguDnzDO0_cB9-q-8">
          <mxGeometry relative="1" as="geometry" />
        </mxCell>
        <mxCell id="9rMmdFguDnzDO0_cB9-q-10" value="ticket消息回调" style="edgeLabel;html=1;align=center;verticalAlign=middle;resizable=0;points=[];" vertex="1" connectable="0" parent="9rMmdFguDnzDO0_cB9-q-9">
          <mxGeometry x="-0.2409" y="-2" relative="1" as="geometry">
            <mxPoint x="1" as="offset" />
          </mxGeometry>
        </mxCell>
        <mxCell id="9rMmdFguDnzDO0_cB9-q-3" value="基座（教育号）" style="swimlane;startSize=20;html=1;" vertex="1" parent="9rMmdFguDnzDO0_cB9-q-1">
          <mxGeometry x="230" y="20" width="200" height="360" as="geometry" />
        </mxCell>
        <mxCell id="9rMmdFguDnzDO0_cB9-q-6" value="教育号添加应用" style="rounded=1;whiteSpace=wrap;html=1;" vertex="1" parent="9rMmdFguDnzDO0_cB9-q-3">
          <mxGeometry x="40" y="40" width="100" height="40" as="geometry" />
        </mxCell>
        <mxCell id="9rMmdFguDnzDO0_cB9-q-11" value="机构安装" style="rounded=1;whiteSpace=wrap;html=1;" vertex="1" parent="9rMmdFguDnzDO0_cB9-q-3">
          <mxGeometry x="60" y="182.5" width="102.5" height="35" as="geometry" />
        </mxCell>
        <mxCell id="9rMmdFguDnzDO0_cB9-q-19" value="安装成功" style="rounded=1;whiteSpace=wrap;html=1;" vertex="1" parent="9rMmdFguDnzDO0_cB9-q-3">
          <mxGeometry x="60" y="247.5" width="102.5" height="35" as="geometry" />
        </mxCell>
        <mxCell id="9rMmdFguDnzDO0_cB9-q-20" value="安装失败" style="rounded=1;whiteSpace=wrap;html=1;" vertex="1" parent="9rMmdFguDnzDO0_cB9-q-3">
          <mxGeometry x="60" y="300" width="102.5" height="35" as="geometry" />
        </mxCell>
        <mxCell id="9rMmdFguDnzDO0_cB9-q-12" style="edgeStyle=orthogonalEdgeStyle;rounded=0;orthogonalLoop=1;jettySize=auto;html=1;entryX=1;entryY=0.5;entryDx=0;entryDy=0;dashed=1;" edge="1" parent="9rMmdFguDnzDO0_cB9-q-1" source="9rMmdFguDnzDO0_cB9-q-6" target="9rMmdFguDnzDO0_cB9-q-7">
          <mxGeometry relative="1" as="geometry" />
        </mxCell>
        <mxCell id="9rMmdFguDnzDO0_cB9-q-13" value="需手动同步" style="edgeLabel;html=1;align=center;verticalAlign=middle;resizable=0;points=[];" vertex="1" connectable="0" parent="9rMmdFguDnzDO0_cB9-q-12">
          <mxGeometry x="-0.26" y="-1" relative="1" as="geometry">
            <mxPoint x="-13" y="1" as="offset" />
          </mxGeometry>
        </mxCell>
        <mxCell id="9rMmdFguDnzDO0_cB9-q-15" style="edgeStyle=orthogonalEdgeStyle;rounded=0;orthogonalLoop=1;jettySize=auto;html=1;entryX=1;entryY=0.5;entryDx=0;entryDy=0;" edge="1" parent="9rMmdFguDnzDO0_cB9-q-1" source="9rMmdFguDnzDO0_cB9-q-11" target="9rMmdFguDnzDO0_cB9-q-14">
          <mxGeometry relative="1" as="geometry" />
        </mxCell>
        <mxCell id="9rMmdFguDnzDO0_cB9-q-16" value="消息回调" style="edgeLabel;html=1;align=center;verticalAlign=middle;resizable=0;points=[];" vertex="1" connectable="0" parent="9rMmdFguDnzDO0_cB9-q-15">
          <mxGeometry x="0.08" y="2" relative="1" as="geometry">
            <mxPoint as="offset" />
          </mxGeometry>
        </mxCell>
        <mxCell id="9rMmdFguDnzDO0_cB9-q-21" style="edgeStyle=orthogonalEdgeStyle;rounded=0;orthogonalLoop=1;jettySize=auto;html=1;entryX=0;entryY=0.5;entryDx=0;entryDy=0;" edge="1" parent="9rMmdFguDnzDO0_cB9-q-1" source="9rMmdFguDnzDO0_cB9-q-17" target="9rMmdFguDnzDO0_cB9-q-19">
          <mxGeometry relative="1" as="geometry" />
        </mxCell>
        <mxCell id="9rMmdFguDnzDO0_cB9-q-23" value="是" style="edgeLabel;html=1;align=center;verticalAlign=middle;resizable=0;points=[];" vertex="1" connectable="0" parent="9rMmdFguDnzDO0_cB9-q-21">
          <mxGeometry x="-0.0853" y="-1" relative="1" as="geometry">
            <mxPoint y="1" as="offset" />
          </mxGeometry>
        </mxCell>
        <mxCell id="9rMmdFguDnzDO0_cB9-q-22" style="edgeStyle=orthogonalEdgeStyle;rounded=0;orthogonalLoop=1;jettySize=auto;html=1;entryX=0;entryY=0.5;entryDx=0;entryDy=0;exitX=0.5;exitY=1;exitDx=0;exitDy=0;" edge="1" parent="9rMmdFguDnzDO0_cB9-q-1" source="9rMmdFguDnzDO0_cB9-q-17" target="9rMmdFguDnzDO0_cB9-q-20">
          <mxGeometry relative="1" as="geometry" />
        </mxCell>
        <mxCell id="9rMmdFguDnzDO0_cB9-q-24" value="否" style="edgeLabel;html=1;align=center;verticalAlign=middle;resizable=0;points=[];" vertex="1" connectable="0" parent="9rMmdFguDnzDO0_cB9-q-22">
          <mxGeometry x="0.3333" y="-3" relative="1" as="geometry">
            <mxPoint as="offset" />
          </mxGeometry>
        </mxCell>
      </root>
    </mxGraphModel>
  </diagram>
</mxfile>
